# xmcd CD database file
#
# Track frame offsets:
#	150
#	17032
#	34157
#	50260
#	68072
#	86597
#	103250
#	120307
#	135237
#	157075
#	174805
#	191047
#	207360
#	229117
#	244802
#
# Disc length: 3501 seconds
#
# Revision: 1
# Processed by: cddbd v1.5.1PL0 Copyright (c) Steve Scherf et al.
# Submitted via: CDex 1.51
#
DISCID=c20dab0f
DTITLE=HIROKO MITA - BEST COLLECTION
DYEAR=1985
DGENRE=JPop
TTITLE0=ときめき おぼろ
TTITLE1=恋するメトロ
TTITLE2=ガラス窓
TTITLE3=春の冒険
TTITLE4=星空の人魚
TTITLE5=野菊一輪
TTITLE6=初恋
TTITLE7=ひとりぽっちの卒業式
TTITLE8=１２月のデクレシェント
TTITLE9=季節のファンタジー
TTITLE10=ピンクシャドウ
TTITLE11=夏の雫(しずく)
TTITLE12=Mission in the Midnight 私を愛したスパイ
TTITLE13=何故ですか
TTITLE14=駈けてきた処女(おとめ)
EXTD=YEAR: 1985
EXTT0=
EXTT1=
EXTT2=
EXTT3=
EXTT4=
EXTT5=
EXTT6=
EXTT7=
EXTT8=
EXTT9=
EXTT10=
EXTT11=
EXTT12=
EXTT13=
EXTT14=
PLAYORDER=
